# xmcd CD database file
#
# Track frame offsets:
#	150
#	16391
#	37904
#	63875
#
# Disc length: 1145 seconds
#
# Revision: 0
# Processed by: cddbd v1.5.1PL0 Copyright (c) Steve Scherf et al.
# Submitted via: CDex 1.51
#
DISCID=25047704
DTITLE=いろいろ - まいあひぃ〜
DYEAR=2005
DGENRE=ロック (日本)
TTITLE0=(2005.03.02)O-ZONE - Dragostea din tei (恋のマイアヒ)
TTITLE1=リップスライム 楽園ベイベー
TTITLE2=(2004.07.07)湘南乃風 - 晴伝説
TTITLE3=【音楽】 AI - Story(2005.05.18)
EXTD=YEAR: 2005
EXTT0=
EXTT1=
EXTT2=
EXTT3=
PLAYORDER=
